<?xml version="1.0" encoding="utf-8"?>
<!-- Generator: Adobe Illustrator 24.2.0, SVG Export Plug-In . SVG Version: 6.00 Build 0)  -->
<svg version="1.1" id="Layer_1" xmlns="http://www.w3.org/2000/svg" xmlns:xlink="http://www.w3.org/1999/xlink" x="0px" y="0px"
	 viewBox="0 0 87 31" style="enable-background:new 0 0 87 31;" xml:space="preserve">
<style type="text/css">
	.st0{fill:#FFFFFF;}
	.st1{fill:url(#SVGID_1_);}
</style>
<g>
	<g>
		<g>
			<linearGradient id="SVGID_1_" gradientUnits="userSpaceOnUse" x1="43.5" y1="0.5" x2="43.5" y2="30.5">
				<stop  offset="0" style="stop-color:#40C6F4"/>
				<stop  offset="1" style="stop-color:#00B6F1"/>
			</linearGradient>
			<path class="st1" d="M72.37,0.5c-7.35,0-13.42,5.58-14.44,12.84C56.91,6.08,50.84,0.5,43.49,0.5c-7.32,0-13.38,5.54-14.43,12.76
				C28.01,6.04,21.95,0.5,14.63,0.5c-2.25,0-4.38,0.52-6.28,1.46V0.5H0.04v15.72h0.02C0.42,24.17,6.8,30.5,14.63,30.5
				c7.32,0,13.38-5.54,14.43-12.76c1.05,7.22,7.11,12.76,14.43,12.76c7.04,0,12.91-5.12,14.29-11.94V30.5h8.32v-1.46
				c1.9,0.93,4.03,1.46,6.28,1.46c8.06,0,14.59-6.72,14.59-15C86.96,7.22,80.43,0.5,72.37,0.5z M14.63,21.95
				c-3.47,0-6.28-2.89-6.28-6.45c0-3.56,2.81-6.45,6.28-6.45c3.47,0,6.28,2.89,6.28,6.45C20.91,19.06,18.1,21.95,14.63,21.95z
				 M43.49,21.95c-2.74,0-5.06-1.8-5.92-4.31h11.84C48.55,20.15,46.23,21.95,43.49,21.95z M37.57,13.36
				c0.86-2.51,3.18-4.32,5.92-4.32c2.74,0,5.06,1.8,5.92,4.32H37.57z M72.37,21.95c-3.47,0-6.28-2.89-6.28-6.45
				c0-3.56,2.81-6.45,6.28-6.45c3.47,0,6.28,2.89,6.28,6.45C78.65,19.06,75.84,21.95,72.37,21.95z"/>
		</g>
	</g>
</g>
</svg>
