<?xml version="1.0" encoding="UTF-8" standalone="no"?>
<!-- Created with Inkscape (http://www.inkscape.org/) -->

<svg
   width="45.636002mm"
   height="13.203732mm"
   viewBox="0 0 45.636002 13.203732"
   version="1.1"
   id="svg5"
   xml:space="preserve"
   xmlns="http://www.w3.org/2000/svg"
   xmlns:svg="http://www.w3.org/2000/svg"><defs
     id="defs2"><clipPath
       clipPathUnits="userSpaceOnUse"
       id="clipPath27"><path
         d="M 0,842 H 595 V 0 H 0 Z"
         id="path25" /></clipPath></defs><g
     id="layer1"
     transform="translate(-107.87262,-122.60959)" /><path
     d="m 112.12738,174.42932 h 209.90277 v -297.0389 H 112.12738 Z"
     style="fill:#ffffff;fill-opacity:1;fill-rule:nonzero;stroke:none;stroke-width:0.352778"
     id="path19" /><g
     id="g21"
     transform="matrix(0.35277776,0,0,-0.35277778,-60.381477,174.42932)"><g
       id="g23"
       clip-path="url(#clipPath27)"><g
         id="g73"
         transform="translate(198.9331,482.0073)"><path
           d="M 0,0 C -3.158,0 -5.422,-1.037 -7.261,-3.678 -8.44,-1.367 -10.845,0 -14.192,0 c -2.547,0 -5.565,-1.32 -6.743,-3.395 v 2.688 h -6.838 v -23.435 h 7.168 v 13.486 c 0,2.121 1.367,4.055 3.866,4.055 2.593,0 3.772,-1.745 3.772,-3.961 v -13.58 h 7.073 v 13.533 c 0,2.074 1.369,4.008 3.914,4.008 2.546,0 3.725,-1.745 3.725,-3.961 v -13.58 H 8.677 V -8.959 C 8.677,-2.594 4.433,0 0,0"
           style="fill:#ee2d21;fill-opacity:1;fill-rule:nonzero;stroke:none"
           id="path75" /></g><g
         id="g77"
         transform="translate(243.0405,478.1406)"><path
           d="m 0,0 v 3.16 h -6.932 v -23.435 h 7.167 v 10.232 c 0,4.668 2.594,6.365 5.471,6.365 0.707,0 1.461,-0.047 2.263,-0.236 V 3.16 C 7.498,3.301 6.79,3.396 6.083,3.396 4.198,3.396 1.226,2.641 0,0"
           style="fill:#ee2d21;fill-opacity:1;fill-rule:nonzero;stroke:none"
           id="path79" /></g><path
         d="m 253.462,457.865 h 7.167 V 481.3 h -7.167 z"
         style="fill:#ee2d21;fill-opacity:1;fill-rule:nonzero;stroke:none"
         id="path81" /><g
         id="g83"
         transform="translate(273.5977,488.1377)"><path
           d="m 0,0 h -6.412 v -3.018 c 0,-2.169 -1.179,-3.819 -3.632,-3.819 h -1.178 v -6.272 h 4.149 v -10.044 c 0,-4.668 2.971,-7.544 7.827,-7.544 2.263,0 3.442,0.519 3.726,0.66 v 5.941 C 4.054,-24.19 3.347,-24.331 2.594,-24.331 1.037,-24.331 0,-23.813 0,-21.879 v 8.77 h 4.574 v 6.272 H 0 Z"
           style="fill:#ee2d21;fill-opacity:1;fill-rule:nonzero;stroke:none"
           id="path85" /></g><g
         id="g87"
         transform="translate(256.9946,494.4453)"><path
           d="m 0,0 c -2.493,0 -4.572,-2.078 -4.572,-4.623 0,-2.544 2.079,-4.622 4.572,-4.622 2.596,0 4.673,2.078 4.673,4.622 C 4.673,-2.078 2.596,0 0,0"
           style="fill:#ee2d21;fill-opacity:1;fill-rule:nonzero;stroke:none"
           id="path89" /></g><g
         id="g91"
         transform="translate(217.147,472.4194)"><path
           d="M 0,0 C 0.142,1.764 1.668,4.006 4.72,4.006 8.154,4.006 9.394,1.812 9.489,0 Z m 4.625,9.728 c -6.151,0 -11.827,-4.864 -11.827,-12.493 0,-7.964 5.817,-12.637 12.352,-12.637 5.372,0 8.946,2.746 10.462,6.259 L 9.684,-6.892 C 8.909,-8.333 7.501,-9.251 5.245,-9.251 c -2.814,0 -5.245,1.907 -5.39,4.578 h 16.501 c 0.048,0.142 0.144,1.239 0.144,2.241 0,7.629 -4.532,12.16 -11.875,12.16"
           style="fill:#ee2d21;fill-opacity:1;fill-rule:nonzero;stroke:none"
           id="path93" /></g><g
         id="g95"
         transform="translate(289.626,464.1367)"><path
           d="m 0,0 10.709,11.27 v 5.894 H -8.484 V 11.033 10.892 H 1.427 L -8.767,0.047 V -6.271 H 10.896 V -0.095 0 Z"
           style="fill:#ee2d21;fill-opacity:1;fill-rule:nonzero;stroke:none"
           id="path97" /></g></g></g></svg>
