<svg width="461" height="72" viewBox="0 0 461 72" fill="none" xmlns="http://www.w3.org/2000/svg">
<path d="M7.64703 3.12C6.92703 1.44 8.12703 0 9.32703 0H32.8471C34.7671 0 35.2471 1.92 34.5271 3.12L30.2071 10.56C29.4871 12 27.8071 12 27.0871 10.56L23.0071 3.36001C21.8071 1.44 20.367 1.44 19.167 3.36001L15.327 10.32C14.847 11.52 15.567 12.96 17.007 12.96H40.5271C42.2071 12.96 42.9271 14.88 42.2071 15.84C42.2071 15.84 31.4071 34.5601 30.4471 36.2401C29.4871 37.6801 27.5671 37.6801 26.6071 36.2401L22.5271 29.04C21.5671 27.6 22.7671 25.68 24.2071 25.68H33.0871C34.2871 25.68 35.2471 24.24 34.5271 23.04L30.6871 16.32C29.7271 14.64 28.0471 14.4 27.0871 16.32C27.0871 16.32 16.287 34.8001 15.567 36.2401C14.847 37.6801 13.167 37.6801 12.207 36.2401C11.247 34.8001 0.447022 16.08 0.447022 16.08C-0.75298 14.4 0.687022 12.96 2.12702 12.96H10.287C12.207 12.96 12.927 14.64 11.967 16.08L7.88703 23.52C7.16703 24.48 8.12703 25.92 9.56703 25.92H18.207C19.407 25.92 20.367 24.72 19.647 23.28L7.64703 3.12Z" fill="white"/>
<path d="M226.047 33.6006H233.487V3.84051H226.047V33.6006Z" fill="white"/>
<path d="M259.647 22.0805L247.407 3.84051H239.967V33.6006H247.407V15.3605L259.407 33.6006H266.847V3.84051H259.407V22.0805H259.647Z" fill="white"/>
<path d="M354.688 10.3205H360.927V33.6006H368.368V10.3205H374.608V3.84051H354.688V10.3205V10.3205Z" fill="white"/>
<path d="M405.328 33.6006H412.768V3.84051H405.328V33.6006Z" fill="white"/>
<path d="M419.486 33.6006H436.046V26.8805H426.926V21.8405H435.806V15.3605H426.926V10.3205H436.046V3.84051H419.486V33.6006Z" fill="white"/>
<path d="M452.847 15.5999C449.726 14.3999 448.046 13.4399 448.046 11.7599C448.046 10.0799 449.727 9.11991 451.167 9.35991C453.807 9.59991 455.967 11.2799 455.967 11.2799L459.087 5.7599C459.087 5.7599 455.727 2.8799 450.446 2.8799C445.406 2.8799 440.606 6.2399 440.366 11.9999C440.126 17.5199 444.447 19.9199 447.087 20.8799C449.727 21.8399 452.847 22.5599 452.847 24.7199C452.847 27.1199 450.687 27.5999 449.007 27.5999C447.327 27.5999 444.686 26.8799 442.526 24.9599L439.646 30.7199C440.846 31.6799 444.926 34.0799 449.726 34.0799C455.006 34.0799 461.487 30.9599 460.767 23.2799C460.287 19.1999 455.967 16.7999 452.847 15.5999Z" fill="white"/>
<path d="M344.847 15.5999C341.726 14.3999 340.046 13.4399 340.046 11.7599C340.046 10.0799 341.727 9.11991 343.167 9.35991C345.807 9.59991 347.967 11.2799 347.967 11.2799L351.087 5.7599C351.087 5.7599 347.727 2.8799 342.446 2.8799C337.406 2.8799 332.606 6.2399 332.366 11.9999C332.126 17.5199 336.447 19.9199 339.087 20.8799C341.727 21.8399 344.847 22.5599 344.847 24.7199C344.847 27.1199 342.687 27.5999 341.007 27.5999C339.327 27.5999 336.686 26.8799 334.526 24.9599L331.646 30.7199C332.846 31.6799 336.926 34.0799 341.726 34.0799C347.006 34.0799 353.487 30.9599 352.767 23.2799C352.287 19.1999 347.967 16.7999 344.847 15.5999Z" fill="white"/>
<path d="M320.368 21.1205C320.368 24.9605 319.168 27.6005 315.328 27.6005C311.728 27.6005 310.288 24.9605 310.288 21.1205C310.288 17.2805 310.288 3.84051 310.288 3.84051H302.848C302.848 3.84051 302.848 10.5605 302.848 21.8405C302.848 32.6406 310.048 34.5606 315.328 34.5606C320.368 34.5606 327.808 32.6406 327.808 21.8405C327.808 10.5605 327.808 3.84051 327.808 3.84051H320.368C320.368 3.84051 320.368 17.2805 320.368 21.1205Z" fill="white"/>
<path d="M284.126 3.84051C279.086 3.84051 273.566 3.84051 273.566 3.84051V18.7205V33.6006C273.566 33.6006 279.086 33.6006 284.126 33.6006C292.046 33.6006 298.286 29.0405 298.286 18.7205C298.286 8.16051 292.046 3.84051 284.126 3.84051ZM282.206 27.1205H280.766V18.7205V10.3205H281.966C288.206 10.3205 290.366 13.2005 290.366 18.7205C290.606 24.2405 288.446 27.1205 282.206 27.1205Z" fill="white"/>
<path d="M400.048 12.9605C400.048 6.48051 395.488 3.84051 389.968 3.84051H378.928V33.6006H386.368V22.0805L393.328 33.6006H401.488L393.568 21.3605C397.648 20.6405 400.048 17.0405 400.048 12.9605ZM387.088 17.2805H386.368V9.60051H387.328C389.728 9.60051 392.128 10.0805 392.128 13.4405C392.128 16.8005 389.488 17.2805 387.088 17.2805Z" fill="white"/>
<path d="M98.1271 2.64024C89.2471 2.64024 82.2871 9.84025 82.2871 18.7203C82.2871 27.6003 89.4871 34.8003 98.1271 34.8003C107.007 34.8003 113.967 27.6003 113.967 18.7203C113.967 9.84025 106.767 2.64024 98.1271 2.64024ZM98.1271 27.1203C93.5671 27.1203 89.7271 23.2803 89.7271 18.7203C89.7271 14.1603 93.5671 10.3203 98.1271 10.3203C102.687 10.3203 106.527 14.1603 106.527 18.7203C106.527 23.2803 102.687 27.1203 98.1271 27.1203Z" fill="white"/>
<path d="M158.127 2.64024C149.247 2.64024 142.287 9.84025 142.287 18.7203C142.287 27.6003 149.487 34.8003 158.127 34.8003C167.007 34.8003 173.967 27.6003 173.967 18.7203C174.207 9.84025 167.007 2.64024 158.127 2.64024ZM158.127 27.1203C153.567 27.1203 149.727 23.2803 149.727 18.7203C149.727 14.1603 153.567 10.3203 158.127 10.3203C162.687 10.3203 166.527 14.1603 166.527 18.7203C166.527 23.2803 162.927 27.1203 158.127 27.1203Z" fill="white"/>
<path d="M128.127 3.84051H120.447V33.6006H138.447V26.6405H128.127V3.84051Z" fill="white"/>
<path d="M71.0068 3.84051L61.6468 16.3205V3.84051H53.9668V33.6005H61.6468V21.3605L71.0068 33.8405H80.6068L68.8468 18.9605L80.6068 4.08051H71.0068V3.84051Z" fill="white"/>
<path d="M200.847 3.84051V20.8805L188.367 3.84051H180.447V33.6006H188.127V15.3605L201.327 33.6006H208.287V3.84051H200.847Z" fill="white"/>
<path d="M53.7266 53.0394H66.4466V55.9194H57.0866V60.7194H65.4866V63.3594H57.0866V71.5194H53.9666V53.0394H53.7266Z" fill="white"/>
<path d="M68.6074 58.3199H71.4874V60.2399C72.4474 58.7999 73.8874 57.8399 75.5674 57.8399C78.4474 57.8399 80.3674 59.2799 80.3674 62.3999V71.5199H77.4874V63.1199C77.4874 60.9599 76.5274 60.2399 74.8474 60.2399C72.9274 60.2399 71.7274 61.6799 71.7274 63.8399V71.7599H68.8474V58.3199H68.6074Z" fill="white"/>
<path d="M96.2056 59.0397C95.7256 56.8797 94.2856 55.4397 91.6456 55.4397C87.8056 55.4397 86.1256 59.0397 86.1256 62.3997C86.1256 65.9997 87.8056 69.3597 91.6456 69.3597C94.5256 69.3597 95.9656 67.1997 96.4456 64.5597H99.5656C99.0856 68.8797 95.9656 71.9997 91.6456 71.9997C86.1256 71.9997 82.7656 67.6797 82.7656 62.3997C82.7656 57.1197 86.1256 52.7997 91.6456 52.7997C95.7256 52.7997 99.0857 55.1997 99.3257 59.0397H96.2056Z" fill="white"/>
<path d="M126.207 62.3994C126.207 67.6794 122.847 71.9994 117.327 71.9994C111.807 71.9994 108.447 67.6794 108.447 62.3994C108.447 57.1194 111.807 52.7994 117.327 52.7994C122.847 52.5594 126.207 57.1194 126.207 62.3994ZM111.807 62.3994C111.807 65.9994 113.487 69.3594 117.327 69.3594C121.167 69.3594 122.847 65.7594 122.847 62.3994C122.847 58.7994 121.167 55.4394 117.327 55.4394C113.487 55.1994 111.807 58.7994 111.807 62.3994Z" fill="white"/>
<path d="M129.086 53.0394H137.966C142.046 53.0394 143.966 54.9594 143.966 58.0794C143.966 61.6794 141.566 62.6394 140.846 62.6394C142.046 62.8794 143.486 63.5994 143.486 66.4794C143.486 68.6394 143.726 70.5594 144.446 71.2794H141.086C140.606 70.5594 140.606 69.3594 140.606 68.6394C140.606 65.2794 139.886 63.8394 137.006 63.8394H132.206V71.5194H129.086V53.0394V53.0394ZM132.206 61.4394H137.486C139.406 61.4394 140.606 60.4794 140.606 58.5594C140.606 56.1594 139.166 55.6794 137.486 55.6794H132.206V61.4394Z" fill="white"/>
<path d="M163.167 71.5197H161.007L160.527 69.3597C158.847 71.2797 157.167 71.9997 155.007 71.9997C149.487 71.9997 146.127 67.6797 146.127 62.3997C146.127 57.1197 149.487 52.7997 155.007 52.7997C159.087 52.7997 162.447 54.9597 162.927 59.0397H159.807C159.567 56.6397 157.407 55.4397 155.007 55.4397C151.167 55.4397 149.487 59.0397 149.487 62.3997C149.487 65.9997 151.167 69.3597 155.007 69.3597C158.367 69.3597 160.047 67.4397 160.047 64.3197H155.247V61.9197H163.167V71.5197Z" fill="white"/>
<path d="M171.567 53.0394H174.927L181.887 71.5194H178.527L176.847 66.7194H169.407L167.727 71.5194H164.367L171.567 53.0394ZM170.367 64.3194H175.887L173.247 56.3994L170.367 64.3194Z" fill="white"/>
<path d="M183.566 53.0394H186.926L195.326 66.7194V53.0394H198.446V71.5194H195.086L186.686 57.8394V71.5194H183.566V53.0394Z" fill="white"/>
<path d="M202.287 53.0394H205.407V71.5194H202.287V53.0394Z" fill="white"/>
<path d="M209.007 53.0394H222.927V55.4394L212.127 68.6394H223.167V71.5194H208.047V68.8794L218.847 55.9194H209.007V53.0394V53.0394Z" fill="white"/>
<path d="M230.606 53.0394H233.966L240.926 71.5194H237.566L235.886 66.7194H228.446L226.766 71.5194H223.406L230.606 53.0394ZM229.406 64.3194H234.926L232.286 56.3994L229.406 64.3194Z" fill="white"/>
<path d="M238.766 53.0394H253.646V55.9194H247.886V71.5194H244.766V55.9194H239.006V53.0394H238.766Z" fill="white"/>
<path d="M255.566 53.0394H258.686V71.5194H255.566V53.0394Z" fill="white"/>
<path d="M279.326 62.3994C279.326 67.6794 275.966 71.9994 270.446 71.9994C264.926 71.9994 261.566 67.6794 261.566 62.3994C261.566 57.1194 264.926 52.7994 270.446 52.7994C276.206 52.5594 279.326 57.1194 279.326 62.3994ZM264.926 62.3994C264.926 65.9994 266.606 69.3594 270.446 69.3594C274.286 69.3594 275.966 65.7594 275.966 62.3994C275.966 58.7994 274.286 55.4394 270.446 55.4394C266.606 55.1994 264.926 58.7994 264.926 62.3994Z" fill="white"/>
<path d="M282.207 53.0394H285.567L293.967 66.7194V53.0394H297.087V71.5194H293.727L285.327 57.8394V71.5194H282.207V53.0394Z" fill="white"/>
</svg>
